<svg width="406" height="306" fill="none" xmlns="http://www.w3.org/2000/svg"><path opacity=".3" d="M97.288 124.306c-28.075 4.984-47.918 29.435-44.66 56.261 1.735 14.21 8.77 26.827 26.867 30.45 48.009 9.653 229.238 45.99 264.844-16.97 27.76-49.065 11.215-83.038-14.566-104.302-25.781-21.264-79.17-16.849-123.352-2.294-32.856 10.85-57.287 27.639-109.133 36.855z" fill="#E6E6E6"/><path opacity=".45" d="M208.684 261.524c90.263 0 163.435-5.408 163.435-12.079 0-6.67-73.172-12.078-163.435-12.078s-163.435 5.408-163.435 12.078c0 6.671 73.172 12.079 163.435 12.079z" fill="#E6E6E6"/><path d="M117.05 81.747c10.729 0 19.427-8.698 19.427-19.427 0-10.73-8.698-19.427-19.427-19.427-10.73 0-19.427 8.698-19.427 19.427 0 10.73 8.697 19.427 19.427 19.427z" fill="#FFD200"/><path opacity=".15" d="M117.05 99.357c20.455 0 37.037-16.582 37.037-37.037s-16.582-37.038-37.037-37.038S80.013 41.865 80.013 62.32s16.582 37.037 37.037 37.037z" fill="#FFD200"/><path d="M198.625 248.887c28.685 0 51.938-23.253 51.938-51.937 0-28.685-23.253-51.938-51.938-51.938-28.684 0-51.937 23.253-51.937 51.938 0 28.684 23.253 51.937 51.937 51.937z" fill="#24285B"/><path d="M198.625 229.643c18.056 0 32.693-14.638 32.693-32.693 0-18.056-14.637-32.694-32.693-32.694-18.056 0-32.693 14.638-32.693 32.694 0 18.055 14.637 32.693 32.693 32.693z" fill="#fff"/><path d="M135.919 209.343c3.441 0 4.679 1.238 4.679 4.669v5.917c0 3.441-1.015 4.679-4.679 4.679h-9.491v18.017c0 3.43-1.238 4.669-4.679 4.669h-6.739c-3.431 0-4.669-1.239-4.669-4.669v-18.017H64.96c-3.43 0-4.669-1.238-4.669-4.679v-4.953a9.134 9.134 0 011.624-5.633l45.675-56.668a8.201 8.201 0 016.598-3.299h7.612c3.441 0 4.679.965 4.679 4.68v55.287h9.44zm-25.578-36.865L80.49 209.343h29.851v-36.865zm221.99 36.865c3.441 0 4.679 1.238 4.679 4.669v5.917c0 3.441-.964 4.679-4.679 4.679h-9.49v18.017c0 3.43-1.238 4.669-4.679 4.669h-6.74c-3.43 0-4.669-1.239-4.669-4.669v-18.017h-45.39c-3.431 0-4.669-1.238-4.669-4.679v-4.953a9.126 9.126 0 011.644-5.633l45.675-56.668a8.193 8.193 0 016.597-3.299h7.562c3.441 0 4.679.965 4.679 4.68v55.287h9.48zm-25.578-36.865l-29.851 36.865h29.851v-36.865z" fill="#4F46E5"/><path opacity=".58" d="M311.96 138.313s-8.637-2.355-10.515-10.404c0 0 13.388-2.7 13.773 11.114l-3.258-.71z" fill="#4F46E5"/><path opacity=".73" d="M313.026 137.46s-6.039-9.551-.731-18.473c0 0 10.15 6.466 5.664 18.494l-4.933-.021z" fill="#4F46E5"/><path d="M314.579 137.471s3.187-10.09 12.84-11.998c0 0 1.806 6.547-6.253 12.018l-6.587-.02z" fill="#4F46E5"/><path d="M308.316 137.237l1.746 11.987 11.033.051 1.624-11.977-14.403-.061z" fill="#24285B"/><path d="M204.908 128.752s1.421 6.851.802 11.601a3.51 3.51 0 01-3.969 3.045c-2.385-.345-5.511-1.502-6.719-5.075l-2.801-5.836a6.307 6.307 0 011.959-7.004c3.593-3.309 10.068-.903 10.728 3.269z" fill="#F4A28C"/><path d="M192.728 133.512l-.913 22.949 12.677-.406-4.425-16.534-7.339-6.009z" fill="#F4A28C"/><path d="M203.213 129.239a27.763 27.763 0 01-6.465.274 5.849 5.849 0 01.751 6.364 4.75 4.75 0 01-5.481 2.558l-.944-8.953a7.098 7.098 0 012.842-6.739 24.595 24.595 0 012.811-1.817c2.446-1.34 6.415-.071 8.516-2.081a1.7 1.7 0 011.619-.391 1.694 1.694 0 011.172 1.183c.731 2.669.751 7.003-2.75 8.922a6.475 6.475 0 01-2.071.68z" fill="#24285B"/><path d="M198.219 135.583s-.365-2.68-2.354-2.233c-1.99.446-1.482 4.313 1.299 4.344l1.055-2.111zm7.359-2.467l2.264 2.446a1.129 1.129 0 01-.02 1.543 1.12 1.12 0 01-.478.294l-2.598.812.832-5.095z" fill="#F4A28C"/><path opacity=".31" d="M201.193 143.104a8.364 8.364 0 01-4.364-1.949s.67 4.151 5.745 7.724l-1.381-5.775z" fill="#CE8172"/><path d="M191.835 156.461l12.677-.406s19.915-3.38 26.827 12.86c6.912 16.24-1.949 39.189-1.949 39.189s-7.206 24.228-37.555 21.549c0 0-25.243-1.462-28.095-36.063a33.802 33.802 0 00-.69-4.486c-1.157-5.41-1.827-21.823 28.785-32.643z" fill="#4F46E5"/><path opacity=".08" d="M174.854 178.02s6.76.741 16.149 16.463c9.388 15.722 27.821 9.957 38.214-1.675l-19.285 25.517-21.599-1.735-11.743-31.262-1.736-7.308z" fill="#000"/><path d="M248.88 141.629l-3.713.496 1.444 10.805 3.712-.496-1.443-10.805z" fill="#FFD200"/><path opacity=".08" d="M248.88 141.629l-3.713.496 1.444 10.805 3.712-.496-1.443-10.805z" fill="#000"/><path d="M250.966 149.296l-5.704.762 1.854 13.874 5.704-.763-1.854-13.873z" fill="#24285B"/><path d="M243.6 119.272a12.278 12.278 0 00-9.99 16.145 12.282 12.282 0 109.99-16.145zm2.781 20.766a8.683 8.683 0 01-8.665-4.238 8.681 8.681 0 019.733-12.748 8.673 8.673 0 016.372 7.242 8.689 8.689 0 01-7.399 9.744h-.041z" fill="#FFD200"/><path d="M245.295 140.201a8.72 8.72 0 100-17.439 8.72 8.72 0 000 17.439z" fill="#fff"/><path d="M163.415 179.725a6.268 6.268 0 015.145-4.629 6.271 6.271 0 016.274 2.924 143.75 143.75 0 0112.18 24.756c7.257 19.345 42.843 6.587 55.977-38.52l7.491 4.659s-10.333 58.586-51.928 60.738c0 0-25.963 5.257-33.85-26.603 0 0-2.03-5.999-2.152-9.389l-.548-3.816a32.165 32.165 0 011.34-10.019l.071-.101z" fill="#4F46E5"/><path opacity=".39" d="M163.415 179.725a6.268 6.268 0 015.145-4.629 6.271 6.271 0 016.274 2.924 143.75 143.75 0 0112.18 24.756c7.257 19.345 42.843 6.587 55.977-38.52l7.491 4.659s-10.333 58.586-51.928 60.738c0 0-25.963 5.257-33.85-26.603 0 0-2.03-5.999-2.152-9.389l-.548-3.816a32.165 32.165 0 011.34-10.019l.071-.101z" fill="#fff"/><path d="M244.889 165.393s.761-9.653 4.74-9.632c3.979.02 13.327 7.166-1.106 11.885l-3.634-2.253z" fill="#F4A28C"/><path d="M348.642 91.694a6.864 6.864 0 00-6.861-6.861c-.371 0-.741.03-1.106.091a9.238 9.238 0 00-8.12-4.872h-.335a10.983 10.983 0 10-21.315 0h-.335a9.261 9.261 0 00-6.743 2.599 9.25 9.25 0 00-2.821 6.653 9.25 9.25 0 002.821 6.653 9.256 9.256 0 006.743 2.598h32.104v-.06a6.868 6.868 0 005.968-6.801zM81.91 159.608a5.886 5.886 0 00-5.886-5.887 7.105 7.105 0 00-.944.081 7.93 7.93 0 00-6.994-4.172h-.284a9.418 9.418 0 00-16.563-8.088 9.42 9.42 0 00-1.707 8.088h-.284a7.948 7.948 0 00-5.795 2.22 7.941 7.941 0 000 11.424 7.93 7.93 0 005.795 2.221h27.537v-.051a5.9 5.9 0 005.126-5.836z" fill="#E6E6E6"/></svg>