<svg width="406" height="306" fill="none" xmlns="http://www.w3.org/2000/svg"><path d="M173.108 111.964s3.857-9.694 6.506-9.288c2.65.406.549 4.152.549 4.152s6.587-2.792 8.688-.823c2.101 1.97-10.739 9.44-10.739 9.44l-5.004-3.481z" fill="#F4A28C"/><path d="M152.473 134.639l19.549-24.35 8.435 5.785-15.022 40.945-19.184.082 6.222-22.462z" fill="#4F46E5"/><path opacity=".09" d="M152.473 134.639l19.549-24.35 8.435 5.785-15.022 40.945-19.184.082 6.222-22.462z" fill="#000"/><path d="M276.496 125.717l14.17 31.302h-26.969l12.799-31.302z" fill="#24285B"/><path opacity=".44" d="M276.496 125.717l14.17 31.302h-26.969l12.799-31.302z" fill="#fff"/><path d="M178.975 149.214l17.732-39.179a5.37 5.37 0 014.892-3.157h77.455a4.667 4.667 0 013.865 2.059 4.66 4.66 0 01.449 4.356l-16.727 40.905a4.533 4.533 0 01-4.203 2.821h-78.429a5.51 5.51 0 01-4.647-2.528 5.527 5.527 0 01-.387-5.277z" fill="#24285B"/><path d="M189.389 146.981l14.839-32.795a3.327 3.327 0 013.045-1.938h63.996a1.949 1.949 0 011.766 2.689l-14.21 34.663a3.316 3.316 0 01-3.045 2.03h-63.387a3.305 3.305 0 01-2.765-1.508 3.298 3.298 0 01-.239-3.141z" fill="#fff"/><path d="M251.984 116.074l-11.713 28.309h14.971l10.079-28.309h-13.337z" fill="#E6E6E6"/><path opacity=".51" d="M209.598 116.074l-2.924 6.303h39.291l2.314-6.303h-38.681z" fill="#E6E6E6"/><path opacity=".66" d="M245.792 40.974h-64.858v45.411h64.858v-45.41z" fill="#E6E6E6"/><path opacity=".31" d="M331.398 63.802h-50.162V98.92h50.162V63.8z" fill="#E6E6E6"/><path opacity=".3" d="M200.818 273.897c97.466 0 176.478-6.371 176.478-14.231 0-7.859-79.012-14.23-176.478-14.23-97.466 0-176.478 6.371-176.478 14.23 0 7.86 79.012 14.231 176.478 14.231z" fill="#E6E6E6"/><path d="M315.716 157.019H78.256v102.14h237.46v-102.14z" fill="#E6E6E6"/><path d="M254.288 171.717H92.913v87.442h161.375v-87.442z" fill="#C1C1C1"/><path d="M136.507 211.576l-4.455 43.675h9.084l11.337-46.121-8.647-3.411-7.319 5.857z" fill="#24285B"/><path d="M120.988 213.037h-10.089v35.14h10.089v-35.14z" fill="#FFD200"/><path opacity=".15" d="M120.988 213.037h-10.089v35.14h10.089v-35.14z" fill="#000"/><path d="M101.5 186.657s.477 11.977 7.196 16.616c4.405 3.045 26.654 4.72 41.433 5.511 1.719.093 3.4.539 4.94 1.309a12.55 12.55 0 016.834 12.769l-4.06 32.389h9.277l8.739-38.712a20.196 20.196 0 00-12.941-23.477l-20.727-7.359-40.691.954z" fill="#24285B"/><path d="M141.075 88.69l-2.01 12.728-11.409 1.005 6.649-20.412 6.77 6.679z" fill="#F4A28C"/><path d="M138.608 74.845a5.99 5.99 0 018.12 5.897c-.192 4.77-1.38 11.358-6.607 10.343-7.998-1.604-6.242-12.018-6.242-12.018a10.87 10.87 0 014.729-4.222z" fill="#F4A28C"/><path d="M93.552 145.956c-2.923-17.052 4.385-34.51 19.042-43.645a34.236 34.236 0 0121.772-5.4c27.019 2.497 36.946 33.394 22.786 56.942a153.913 153.913 0 00-9.642 19.386l-5.278 12.505-41.737.71-6.943-40.498zm39.413 109.295l-.812 3.867a3.209 3.209 0 003.136 3.867h7.958a1.923 1.923 0 001.829-1.398 1.927 1.927 0 00-.814-2.154l-6.597-4.182h-4.7zm26.644 0l-.812 3.867a3.203 3.203 0 001.755 3.559c.432.204.904.31 1.381.308h7.948a1.927 1.927 0 001.015-3.552c-1.807-1.147-4.06-2.558-6.608-4.182h-4.679z" fill="#4F46E5"/><path d="M132.112 113.902a13.364 13.364 0 018.247-11.151 13.358 13.358 0 0113.698 2.179 37.334 37.334 0 019.541 12.342c7.805 16.352 20.249 27.09 62.229 26.106v10.251s-61.022 12.931-82.976-11.713c-9.368-10.505-11.439-20.269-10.739-28.014z" fill="#4F46E5"/><path opacity=".44" d="M132.112 113.902a13.364 13.364 0 018.247-11.151 13.358 13.358 0 0113.698 2.179 37.334 37.334 0 019.541 12.342c7.805 16.352 20.249 27.09 62.229 26.106v10.251s-61.022 12.931-82.976-11.713c-9.368-10.505-11.439-20.269-10.739-28.014z" fill="#fff"/><path opacity=".58" d="M335.589 247.476s-9.216-2.517-11.215-11.084c0 0 14.271-2.892 14.677 11.845l-3.462-.761z" fill="#4F46E5"/><path opacity=".73" d="M336.716 246.563s-6.435-10.15-.771-19.691c0 0 10.86 6.902 6.029 19.721l-5.258-.03z" fill="#4F46E5"/><path d="M229.478 134.93l-1.688.975 11.998 20.78 1.687-.975-11.997-20.78z" fill="#FFD200"/><path d="M338.381 246.573s3.4-10.749 13.682-12.779c0 0 1.918 6.973-6.658 12.809l-7.024-.03z" fill="#4F46E5"/><path d="M331.692 246.329l1.867 12.779 11.764.051 1.736-12.759-15.367-.071z" fill="#24285B"/><path d="M225.827 146.169s8.415-5.613 12.81-1.705c4.395 3.908-12.81 9.135-12.81 9.135v-7.43z" fill="#F4A28C"/><path opacity=".09" d="M136.487 87.38l-2.121 9.49s-23.223 13.784-24.513 35.079c0 0-3.643 38.377 18.402 53.795l-24.441.71-9.419-59.073s7.308-28.602 35.17-30.653l2.913-8.942 4.009-.406z" fill="#000"/><path d="M130.986 82.214s-1.279 4.273 2.03 5.968c3.309 1.695 7.572-6.09 7.572-6.09s7.45-1.279 10.535-5.176c1.685-2.142-.598-5.075-3.197-4.233a4.88 4.88 0 01-4.73-1.157c-4.679-3.786-15.418-1.066-12.21 10.688z" fill="#24285B"/><path d="M141.085 82.234s-.223-2.862-2.791-1.735c-2.568 1.126-.741 4.78 1.015 4.679 1.756-.102 1.776-2.944 1.776-2.944z" fill="#F4A28C"/><path d="M91.675 203.06s48.882-8.81 54.252-.274c5.369 8.536.609 21.964-19.955 18.27-20.564-3.695-45.787 7.389-34.297-17.996zm-.934-17.275a24.29 24.29 0 01-18.92-30.938c4.172-13.804 12.251-28.501 27.69-27.405 25.334 1.807 40.691 67.518-8.77 58.343z" fill="#FFD200"/><path opacity=".09" d="M97.004 127.402s-28.837 33.576-2.609 53.744l-5.4 4.557s-23.528-7.429-16.93-31.688c0 0 7.592-26.177 24.939-26.613z" fill="#000"/><path d="M103.926 216.356a4.77 4.77 0 01-2.477-.7c-20.574-12.485-9.866-54.242-8.587-58.961a4.78 4.78 0 015.872-3.355 4.774 4.774 0 012.893 2.241 4.772 4.772 0 01.462 3.631c-2.761 10.15-7.907 40.854 4.313 48.273a4.782 4.782 0 01.416 7.899 4.78 4.78 0 01-2.892.972z" fill="#FFD200"/><path opacity=".44" d="M103.926 216.356a4.77 4.77 0 01-2.477-.7c-20.574-12.485-9.866-54.242-8.587-58.961a4.78 4.78 0 015.872-3.355 4.774 4.774 0 012.893 2.241 4.772 4.772 0 01.462 3.631c-2.761 10.15-7.907 40.854 4.313 48.273a4.782 4.782 0 01.416 7.899 4.78 4.78 0 01-2.892.972z" fill="#fff"/><path d="M110.899 248.177L92.913 263.96h47.644l-19.569-15.783h-10.089z" fill="#FFD200"/><path d="M198.047 62.868a7.562 7.562 0 100-15.124 7.562 7.562 0 000 15.124z" fill="#E6E6E6"/><path opacity=".45" d="M236.201 48.881h-21.315V78.49h21.315V48.88z" fill="#C1C1C1"/><path d="M206.431 68.562h-14.647v9.927h14.647v-9.927z" fill="#C1C1C1"/><path opacity=".09" d="M254.288 231.581h-47.867v27.578h47.867v-27.578z" fill="#000"/></svg>