<svg width="406" height="306" fill="none" xmlns="http://www.w3.org/2000/svg"><path d="M205.487 83.533s-58.373 11.957-61.357 38.185c-2.984 26.227 32.023 31.038 62.666 20.696 30.643-10.343 19.285-42.478 6.679-43.645-10.059-1.015-17.905 14.666-33.597 20.929a3.045 3.045 0 01-2.964-5.268l36.642-27.659-4.131-3.999-3.938.761z" fill="#4F46E5"/><path opacity=".09" d="M205.487 83.533s-58.373 11.957-61.357 38.185c-2.984 26.227 32.023 31.038 62.666 20.696 30.643-10.343 19.285-42.478 6.679-43.645-10.059-1.015-17.905 14.666-33.597 20.929a3.045 3.045 0 01-2.964-5.268l36.642-27.659-4.131-3.999-3.938.761z" fill="#000"/><path d="M217.88 67.165L205.996 79.45l7.557 7.311 11.885-12.285-7.558-7.311z" fill="#FFD200"/><path opacity=".09" d="M217.88 67.165L205.996 79.45l7.557 7.311 11.885-12.285-7.558-7.311z" fill="#000"/><path d="M225.898 96.251s1.421-14.666 20.3-14.89c18.879-.223 55.693 4.71 55.389 30.877-.305 26.166-2.842 65.051-36.54 102.393l-58.231-15.093s27.395-70.827 19.082-103.287z" fill="#FFD200"/><path opacity=".09" d="M234.556 93.998s5.075-5.745 27.822.863c22.746 6.607 28.805 17.945 23.04 52.252-5.765 34.307-24.411 60.464-24.411 60.464l-23.152-4.304-3.299-109.275z" fill="#000"/><path d="M234.78 95.937s43.969 2.892 50.049 22.502c6.08 19.61-37.118 88.356-37.118 88.356h-56.607s10.343-41.412 2.436-59.966c-7.907-18.554 3.421-59.236 41.24-50.892z" fill="#4F46E5"/><path d="M231.999 71.485l2.781 24.452-14.961 7.764 4.801-25.212 7.379-7.004z" fill="#F4A28C"/><path opacity=".31" d="M223.706 82.397a8.913 8.913 0 004.507-2.416s-.396 4.486-5.532 8.709l1.025-6.293z" fill="#CE8172"/><path d="M221.158 69.009s-2.03 7.237-1.654 12.362a3.755 3.755 0 001.298 2.6 3.757 3.757 0 002.762.902c2.578-.203 5.999-1.238 7.541-4.983l3.36-6.06a6.746 6.746 0 00-1.624-7.623c-3.603-3.755-10.698-1.674-11.683 2.802z" fill="#F4A28C"/><path d="M220.133 73.637l-2.578 2.467a1.203 1.203 0 00-.343.513 1.203 1.203 0 00.739 1.517l2.73 1.015-.548-5.512z" fill="#F4A28C"/><path d="M223.544 60.95a1.92 1.92 0 00-3.045 1.116c-.66 2.822-.883 6.922 2.903 8.12 5.958 1.929 3.44 11.328 10.332 11.165l3.918-8.536s1.594-6.191-4.182-8.83c-5.034-2.254-5.826-.092-9.926-3.035zm1.167 33.962c4.06.243 10.942.771 16.757 1.755 0 0-23.893 37.119-28.42 78.501 0 0-10.353-51.968 0-79.09l5.075-.842a30.451 30.451 0 016.588-.324z" fill="#24285B"/><path opacity=".09" d="M260.337 112.238s-11.824 12.413-8.779 26.613 6.902 36.54-4.06 39.971c-10.962 3.43-33.272-6.496-33.272-6.496l-5.501 9.541 2.253 13.59s24.36-4.06 16.524 11.358h20.199s19.376-33.495 22.472-40.062c3.095-6.567-9.836-54.515-9.836-54.515z" fill="#000"/><path d="M235.956 141.502l-33.489 3.036 4.094 45.165 33.49-3.036-4.095-45.165z" fill="#FFD200"/><path d="M259.251 114.856a11.573 11.573 0 012.838-4.885 11.568 11.568 0 0110.455-3.279 11.563 11.563 0 015.119 2.389 38.24 38.24 0 0114.21 26.136c2.731 24.127 7.867 60.342-6.414 64.899-14.281 4.558-50.395-22.512-50.395-22.512l6.404-9.379s22.97 13.642 30.552 11.165c6.242-1.949-18.838-42.701-12.769-64.534z" fill="#4F46E5"/><path opacity=".46" d="M259.251 114.856a11.573 11.573 0 012.838-4.885 11.568 11.568 0 0110.455-3.279 11.563 11.563 0 015.119 2.389 38.24 38.24 0 0114.21 26.136c2.731 24.127 7.867 60.342-6.414 64.899-14.281 4.558-50.395-22.512-50.395-22.512l6.404-9.379s22.97 13.642 30.552 11.165c6.242-1.949-18.838-42.701-12.769-64.534z" fill="#fff"/><path d="M241.468 168.225s-13.946-7.308-16.026-3.045c-2.081 4.263 10.809 10.668 10.809 10.668l5.217-7.623z" fill="#F4A28C"/><path d="M218.124 95.236l2.557-5.369 5.664 3.34 9.226-3.949 1.32 6.902s-14.058 6.384-18.767-.924z" fill="#24285B"/><path d="M222.681 98.738l3.217-2.487 2.315 3.654-2.771 4.669-3.705-.873.944-4.963zm-.944 4.963s-9.835 19.285-13.002 36.013l.264 4.232 11.165-1.015 1.553-4.598s2.852-22.401 3.704-33.759l-3.684-.873z" fill="#fff"/><path d="M152.159 200.025l167.272 30.572-66.554 50.486-189.582-44.366 88.864-36.692z" fill="#4F46E5"/><path d="M63.295 224.273v12.444l256.136-6.12v-12.444l-256.136 6.12z" fill="#4F46E5"/><path d="M152.159 187.581l167.272 30.572-66.554 50.476-189.582-44.356 88.864-36.692z" fill="#24285B"/><path d="M134.447 222.68l27.598-16.768 52.871 13.418-26.542 18.25-53.927-14.9z" fill="#fff"/><path d="M227.847 76.773s.569-2.841 2.67-2.222c2.101.619 1.289 4.71-1.685 4.557l-.985-2.335z" fill="#F4A28C"/><path d="M243.854 214.661l-34.226 23.183 32.125 9.206 32.124-24.421-30.023-7.968z" fill="#FFD200"/><path d="M134.447 222.68l-13.895-38.296 58.494 13.002 9.328 40.194-53.927-14.9z" fill="#4F46E5"/><path d="M248.746 222.487L214.51 245.67l32.135 9.206 32.125-24.421-30.024-7.968z" fill="#fff"/><path d="M205.487 83.533s-.325-8.404 6.09-9.865c6.415-1.462 4.456 9.398-6.09 9.865z" fill="#F4A28C"/><path d="M154.075 215.252c2.117-.852 2.935-3.772 1.828-6.523s-3.72-4.291-5.837-3.439c-2.116.851-2.935 3.772-1.828 6.523s3.721 4.291 5.837 3.439z" fill="#fff"/><path d="M243.488 19.142h-33.556V42.68h33.556V19.142z" fill="#E6E6E6"/><path d="M230.994 39.208l-4.141 11.571-3.685-11.57h7.826z" fill="#E6E6E6"/><path d="M217.454 33.18a2.436 2.436 0 100-4.873 2.436 2.436 0 000 4.872zm8.993 0a2.436 2.436 0 100-4.873 2.436 2.436 0 000 4.872zm9.246 0a2.436 2.436 0 100-4.873 2.436 2.436 0 000 4.872z" fill="#C1C1C1"/><path d="M113.447 82.782c11.598 0 21-9.402 21-21s-9.402-21-21-21c-11.599 0-21 9.402-21 21s9.401 21 21 21z" fill="#E6E6E6"/><path d="M113.446 76.631c8.202 0 14.85-6.648 14.85-14.85 0-8.2-6.648-14.849-14.85-14.849-8.201 0-14.849 6.649-14.849 14.85s6.648 14.85 14.849 14.85z" fill="#fff"/><path d="M113.447 64.238a1.014 1.014 0 01-.67-.243 1.017 1.017 0 01-.345-.772v-9.977a1.016 1.016 0 012.03 0v8.81l7.023-1.015a1.025 1.025 0 01.295 2.03l-8.191 1.177-.142-.01z" fill="#C1C1C1"/><path opacity=".09" d="M252.877 268.629v12.454l66.554-50.486v-12.444l-66.554 50.476z" fill="#000"/></svg>