<svg width="406" height="306" fill="none" xmlns="http://www.w3.org/2000/svg"><path opacity=".45" d="M195.235 276.728c74.791 0 135.422-7.584 135.422-16.94 0-9.356-60.631-16.94-135.422-16.94s-135.421 7.584-135.421 16.94c0 9.356 60.63 16.94 135.421 16.94z" fill="#E6E6E6"/><path d="M205.862 121.241A61.77 61.77 0 01226 159.283c3.238 24.654 34.581 6.09 43.584-20.899l8.648 5.765s-13.297 46.01-52.232 47.908c-38.935 1.898-52.882-60.585-20.138-70.816z" fill="#4F46E5"/><path opacity=".46" d="M205.862 121.241A61.77 61.77 0 01226 159.283c3.238 24.654 34.581 6.09 43.584-20.899l8.648 5.765s-13.297 46.01-52.232 47.908c-38.935 1.898-52.882-60.585-20.138-70.816z" fill="#fff"/><path opacity=".3" d="M127.991 78.763c-20.3 9.764-34.723 33.119-36.682 60.758-1.654 23.345 6.7 56.921 42.752 62.859 70.157 11.52 143.592 17.336 158.756-21.64 15.164-38.976-1.857-116.959-37.342-119.851-28.217-2.284-87.858-1.208-127.484 17.874z" fill="#E6E6E6"/><path d="M192.708 86.893a34.588 34.588 0 013.187 8.597 2.762 2.762 0 01-.5 2.073 2.772 2.772 0 01-1.824 1.104 6.09 6.09 0 01-6.232-2.345l-3.421-3.785a4.965 4.965 0 01-.081-5.735c1.999-3.289 7.43-2.964 8.871.091z" fill="#F4A28C"/><path d="M186.486 93.247l-4.344 17.59 9.866 1.695-.782-13.144-4.74-6.141zm7.704-3.177l2.263 1.35a.895.895 0 01.301 1.179.895.895 0 01-.301.323l-1.746 1.208-.517-4.06z" fill="#F4A28C"/><path opacity=".31" d="M191.277 98.698s-3.624-.782-4.821-1.919c0 0 .334 8.242 5.166 9.318l-.345-7.4z" fill="#CE8172"/><path d="M184.862 91.582s-2.964-.954-3.471 1.35c-.508 2.304 2.791 3.279 4.486 1.563a4.46 4.46 0 01-1.015-2.913z" fill="#F4A28C"/><path d="M144.475 255.414h64.067v-45.787h-64.067v45.787z" fill="#E6E6E6"/><path opacity=".08" d="M191.632 255.424l3.075-40.316 12.861 1.959.913 12.231.061 26.126h-16.91z" fill="#000"/><path d="M193.236 250.125s1.38 3.817 4.821 4.111c3.441.294 4.354 3.664 1.259 4.537-3.096.873-11.105-3.106-11.105-3.106l.224-4.973 4.801-.569zm43.574.406s3.786 1.431 6.252-1.015c2.467-2.446 5.613-.933 4.263 2.03-1.35 2.964-9.561 6.425-9.561 6.425l-4.487-4.192 3.533-3.248zm-43.96-138.192l-9.866-1.705s-32.815 0-38.57 11.287c-5.755 11.287-4.537 53.064 14.444 87.401l38.864 1.117s-2.162-25.213 5.075-38.946c7.237-13.733 29.77-42.914-9.947-59.154z" fill="#4F46E5"/><path d="M158.868 209.322l19.011-2.872a18.198 18.198 0 0115.271 4.825 18.186 18.186 0 015.536 15.028l-2.476 24.137h-9.328l.802-22.604a8.558 8.558 0 00-9.907-8.77c-8.089 1.32-18.107.751-18.909-9.744z" fill="#24285B"/><path opacity=".08" d="M162.197 125.95s10.779 9.44 8.617 19.874a138.49 138.49 0 00-1.086 5.948 59.516 59.516 0 0013.977 48.72l6.78 7.765-31.617 1.065-2.71-5.298-14.758-24.532 20.797-53.542z" fill="#000"/><path d="M143.876 122.956c-7.196 10.15-13.601 32.48-8.039 64.026a21.138 21.138 0 0019.458 17.387l29.699 1.878v-9.693l-22.564-3.259a8.646 8.646 0 01-7.044-11.083c3.979-13.094 10.15-36.804 8.547-53.704-.934-10.262-14.089-13.956-20.057-5.552z" fill="#4F46E5"/><path opacity=".46" d="M143.876 122.956c-7.196 10.15-13.601 32.48-8.039 64.026a21.138 21.138 0 0019.458 17.387l29.699 1.878v-9.693l-22.564-3.259a8.646 8.646 0 01-7.044-11.083c3.979-13.094 10.15-36.804 8.547-53.704-.934-10.262-14.089-13.956-20.057-5.552z" fill="#fff"/><path d="M185.034 198.908s12.049-.304 10.333 5.979c-1.715 6.283-10.333 1.36-10.333 1.36v-7.339z" fill="#F4A28C"/><path d="M225.127 208.5l4.862-27.496h-34.5l-2.994 23.446-15.814.213v3.837h48.446z" fill="#FFD200"/><path d="M211.384 197.64a3.45 3.45 0 100-6.902 3.45 3.45 0 000 6.902z" fill="#fff"/><path opacity=".58" d="M114.167 244.604s-9.449-2.578-11.5-11.378c0 0 14.637-2.954 15.053 12.18l-3.553-.802z" fill="#4F46E5"/><path opacity=".73" d="M115.324 243.66s-6.597-10.434-.791-20.189c0 0 11.165 7.105 6.181 20.219l-5.39-.03z" fill="#4F46E5"/><path d="M117.029 243.67s3.482-11.023 14.028-13.104c0 0 1.979 7.156-6.831 13.134l-7.197-.03z" fill="#4F46E5"/><path d="M110.178 243.426l1.908 13.104 12.069.051 1.776-13.094-15.753-.061zm75.384-144.657s-9.378-2.487-6.414-8.73c0 0-3.32-5.288 2.192-7.987 3.248-1.594 8.059-2.437 11.469-2.863a2.486 2.486 0 012.426 3.756 12.188 12.188 0 01-8.779 5.836 11.509 11.509 0 01-.894 9.987z" fill="#24285B"/><path d="M187.887 92.73s-.873-1.94-2.284-1.158c-1.411.782-.152 3.593 1.959 3.045l.325-1.888zm83.118 46.567s3.674-12.616 6.374-12.799c2.7-.182 0 7.207 0 7.207s9.907 2.517.904 10.444l-7.278-4.852z" fill="#F4A28C"/><path d="M282.546 87.076c15.634 0 28.308-12.674 28.308-28.309 0-15.634-12.674-28.308-28.308-28.308-15.635 0-28.309 12.674-28.309 28.308 0 15.635 12.674 28.309 28.309 28.309z" fill="#FFD200"/><path opacity=".46" d="M288.92 69.019c7.988 0 14.464-6.476 14.464-14.464s-6.476-14.464-14.464-14.464-14.464 6.476-14.464 14.464 6.476 14.464 14.464 14.464z" fill="#fff"/><path opacity=".46" d="M293.782 60.35a7.907 7.907 0 10-.001-15.814 7.907 7.907 0 00.001 15.815z" fill="#fff"/><path d="M299.049 81.635h-33.007v25.761h33.007v-25.76zm-8.769 25.761h-15.824v10.333h15.824v-10.333z" fill="#24285B"/><path opacity=".75" d="M290.28 107.396h-15.824v10.333h15.824v-10.333z" fill="#fff"/><path d="M242.189 40.091s-92.608-30.003-116.258 11.267c-15.895 27.72 16.169 43.31 33.424 40.742" stroke="#E6E6E6" stroke-width="2.03" stroke-linecap="round" stroke-linejoin="round" stroke-dasharray="2.03 10.15"/><path d="M208.075 208.074l30.267 40.975-5.907 5.451s-26.329-30.744-40.458-39.402l-4.933-6.608 21.031-.416z" fill="#24285B"/></svg>