<svg width="406" height="306" fill="none" xmlns="http://www.w3.org/2000/svg"><path d="M182.933 140.313s-.284 6.089.894 10.078a3.05 3.05 0 001.485 1.81 3.047 3.047 0 002.331.22 6.751 6.751 0 005.075-5.288l1.614-5.389a5.472 5.472 0 00-2.629-5.745c-3.522-2.284-8.77.588-8.77 4.314z" fill="#F4A28C"/><path d="M194.058 142.759l3.887 19.589-10.941 1.37 1.553-14.808 5.501-6.151zm-11.104 1.4l-1.614 2.406a1.001 1.001 0 00-.14.458 1.005 1.005 0 00.377.851c.126.101.274.171.433.203l2.344.345-1.4-4.263z" fill="#F4A28C"/><path opacity=".31" d="M188.079 152.137a7.174 7.174 0 003.482-2.263s0 3.664-3.888 7.419l.406-5.156z" fill="#CE8172"/><path d="M107.649 169.745l-25.903 6.109.825 3.497 25.903-6.109-.825-3.497z" fill="#24285B"/><path d="M176.996 166.652s-23.467 8.729-26.654 24.36c-3.187 15.631-20.99 40.407-46.132-7.958l-8.262 3.187s22.898 77.627 63.305 39.768c40.408-37.86 17.743-59.357 17.743-59.357zm-72.786 16.362s-2.872-8.973-7.836-11.602a.905.905 0 00-1.289 1.015l.863 4.375s-6.476 4.242 0 9.439l8.262-3.227z" fill="#F4A28C"/><path d="M180.457 164.875s-30.328 7.552-35.21 36.632l25.435 14.21 9.775-50.842z" fill="#68E1FD"/><path opacity=".46" d="M180.457 164.875s-30.328 7.552-35.21 36.632l25.435 14.21 9.775-50.842z" fill="#4F46E5"/><path opacity=".45" d="M203.041 279.784c68.232 0 123.545-5.222 123.545-11.663s-55.313-11.662-123.545-11.662c-68.233 0-123.546 5.221-123.546 11.662 0 6.441 55.313 11.663 123.546 11.663z" fill="#E6E6E6"/><path d="M218.428 163.211s-25.375-9.856-48.72 8.069 6.902 81.19 6.902 81.19l43.797 1.462s57.449-52.567-1.979-90.721z" fill="#4F46E5"/><path d="M181.736 132.132c-3.421 1.634-2.72 6.82 1.015 7.216.523.051 1.05.051 1.573 0 5.4-.446 3.634 3.502 7.207 6.182 3.572 2.679 4.06 5.004 4.06 5.004s3.369-2.315 1.278-8.973c-2.09-6.658-.893-10.343-7.257-11.084a14.751 14.751 0 00-7.876 1.655z" fill="#24285B"/><path opacity=".08" d="M208.075 166.652s-19.955 17.691-11.165 38.417c13.286 31.303 1.492 34.044-25.588 34.835l7.267 17.418 61.682-19.62-3.999-25.375-28.197-45.675z" fill="#000"/><path d="M183.157 250.237c16.808.568 21.142-.69 36.682-7.105 9.419-3.918 20.615-6.689 29.171-3.146 18.138 7.5 3.674 36.966-42.843 29.841l-42.955-1.939s-16.484 0-19.397-5.918c-3.552-7.216 3.888-14.707 38.215-11.723l1.127-.01z" fill="#24285B"/><path d="M199.971 201.616l-25.709 9.134 12.702 35.751 25.709-9.134-12.702-35.751z" fill="#FFD200"/><path d="M191.645 203.099l-9.689 3.443 1.913 5.384 9.689-3.442-1.913-5.385z" fill="#24285B"/><path d="M214.099 264.686l.191-.029.982 5.87a28.757 28.757 0 01-4.7.789c-1.401.113-2.899.11-4.268-.14-1.372-.252-2.575-.744-3.433-1.576-.408-.396-.461-.679-.428-.871.04-.228.23-.517.673-.85.883-.664 2.444-1.261 4.203-1.762 1.739-.496 3.601-.878 5.033-1.138a71.852 71.852 0 011.747-.293z" fill="#4F46E5" stroke="#000"/><path d="M187.349 268.832l3.288-4.953s10.15 6.891 9.135 9.967c-1.908 6.151-12.423-5.014-12.423-5.014z" fill="#4F46E5"/><path d="M206.045 175.442a11.637 11.637 0 014.972-9.432 11.638 11.638 0 0110.568-1.419c8.12 2.913 18.402 8.679 25.172 20.016 12.728 21.315 35.119 78.155-44.772 62.027l.731-8.323s31.13 3.288 34.083-10.729c2.528-12.068-30.754-25.862-30.754-52.14z" fill="#F4A28C"/><path opacity=".58" d="M285.763 256.286s-8.039-2.192-9.784-9.673c0 0 12.454-2.517 12.809 10.333l-3.025-.66z" fill="#4F46E5"/><path opacity=".73" d="M286.748 255.515s-5.613-8.881-.67-17.184c0 0 9.47 6.019 5.257 17.204l-4.587-.02z" fill="#4F46E5"/><path d="M288.189 255.515s2.974-9.368 11.947-11.165c0 0 1.674 6.09-5.816 11.165h-6.131z" fill="#4F46E5"/><path d="M282.363 255.292l1.634 11.144 10.262.041 1.512-11.135-13.408-.05z" fill="#24285B"/><path d="M81.748 175.868l-3.38 2.893 4.202.599-.822-3.492z" fill="#FFD200"/><path d="M218.59 206.054s-24.542-33.292-6.952-42.153c17.59-8.861 36.804 17.255 39.778 26.776 0 0-10.059 14.19-32.826 15.377z" fill="#68E1FD"/><path opacity=".46" d="M218.59 206.054s-24.542-33.292-6.952-42.153c17.59-8.861 36.804 17.255 39.778 26.776 0 0-10.059 14.19-32.826 15.377z" fill="#4F46E5"/><path d="M202.695 238.311s-3.948-7.816-9.084-6.821c-5.136.995-2.578 13.296 8.354 15.144l.73-8.323zm-13.479-94.142s0-2.344 1.726-2.233c1.725.112 1.857 3.502-.528 3.908l-1.198-1.675z" fill="#F4A28C"/><path d="M307.575 87.868c17.843 0 32.308-14.465 32.308-32.308s-14.465-32.307-32.308-32.307c-17.842 0-32.307 14.464-32.307 32.307 0 17.843 14.465 32.308 32.307 32.308z" fill="#FFD200"/><path opacity=".46" d="M314.853 67.253c9.115 0 16.504-7.39 16.504-16.504 0-9.115-7.389-16.504-16.504-16.504-9.115 0-16.504 7.389-16.504 16.504 0 9.115 7.389 16.504 16.504 16.504z" fill="#fff"/><path opacity=".46" d="M320.395 57.367a9.023 9.023 0 100-18.047 9.023 9.023 0 000 18.047z" fill="#fff"/><path d="M326.404 81.645h-37.667v29.395h37.667V81.645zm-10.008 29.405h-18.057v11.794h18.057V111.05z" fill="#24285B"/><path opacity=".75" d="M316.396 111.05h-18.057v11.794h18.057V111.05z" fill="#fff"/><path d="M307.545 130.426s3.755 36.784-27.791 30.085c-31.546-6.699-26.806-64.848-60.321-64.168-33.515.68-30.755 26.501-30.755 26.501" stroke="#E6E6E6" stroke-width="2.03" stroke-linecap="round" stroke-linejoin="round" stroke-dasharray="2.03 10.15"/><path d="M135.117 114.785c7.846-5.521 12.829-13.702 12.829-22.847 0-16.626-16.453-30.115-36.753-30.115S74.45 75.312 74.45 91.938c0 16.625 16.453 30.115 36.743 30.115a43.164 43.164 0 0017.55-3.644c3.227 6.09 9.703 12.484 22.604 12.038 0 0-12.596-3.837-16.23-15.662z" fill="#E6E6E6"/><path d="M94.71 95.348a4.232 4.232 0 100-8.465 4.232 4.232 0 000 8.465zm16.544 0a4.233 4.233 0 100-8.465 4.233 4.233 0 000 8.465zm15.57 0a4.233 4.233 0 100-8.465 4.233 4.233 0 000 8.465z" fill="#C9C9C9"/></svg>