<svg width="406" height="306" fill="none" xmlns="http://www.w3.org/2000/svg"><path d="M279.419 112.4s40.6-12.474 46.203 14.474c5.603 26.948-5.826 56.992-5.826 56.992h-66.117l25.74-71.466z" fill="#FFD200"/><path d="M225.452 99.814s-21.508-1.015-25.741 20.361c-4.232 21.376 2.984 51.095 2.984 51.095l-32.429 8.719 1.634 3.867h46.264l14.21-33.292-6.922-50.75z" fill="#4F46E5"/><path opacity=".46" d="M225.452 99.814s-21.508-1.015-25.741 20.361c-4.232 21.376 2.984 51.095 2.984 51.095l-32.429 8.719 1.634 3.867h46.264l14.21-33.292-6.922-50.75z" fill="#fff"/><path d="M239.743 71.414s-.315 6.841 1.015 11.328a3.43 3.43 0 001.669 2.043 3.437 3.437 0 002.624.26c2.254-.7 5.075-2.303 5.705-5.947l1.796-6.09a6.15 6.15 0 00-2.974-6.456c-3.948-2.588-9.855.69-9.835 4.862z" fill="#F4A28C"/><path d="M252.085 76.134l2.548 22.29-12.393.517 3.126-16.423 6.719-6.384z" fill="#F4A28C"/><path d="M241.458 71.627a26.916 26.916 0 006.283-.74 5.703 5.703 0 00.254 6.262 4.658 4.658 0 005.684 1.624l-.467-8.79a7.02 7.02 0 00-3.786-6.09 25.683 25.683 0 00-3.045-1.31c-2.568-.913-6.212.935-8.546-.68a1.645 1.645 0 00-2.568 1.188c-.295 2.69.355 6.872 4.06 8.181a6.085 6.085 0 002.131.355z" fill="#24285B"/><path d="M247.254 76.977s0-2.64 1.928-2.518c1.929.122 2.091 3.928-.578 4.395l-1.35-1.877zm-7.48-1.239l-1.797 2.71a1.097 1.097 0 00.751 1.695l2.639.386-1.593-4.79z" fill="#F4A28C"/><path opacity=".31" d="M245.539 83.046a8.12 8.12 0 004.476-1.33s-.183 4.142-5.542 6.964l1.066-5.634z" fill="#CE8172"/><path d="M225.452 99.814s48.243-9.247 64.726 0c16.484 9.247-18.097 95.268-18.097 95.268l-50.811-1.604s-44.457-84.823 4.182-93.664z" fill="#4F46E5"/><path d="M359.939 46.222h-58.697v40.356h58.697V46.222z" fill="#FFD200"/><path d="M322.699 74.317a1.333 1.333 0 01-.843-.294l-8.8-6.953a1.352 1.352 0 010-2.121l8.8-7.105a1.373 1.373 0 011-.292 1.363 1.363 0 011.206 1.5 1.37 1.37 0 01-.5.913l-7.471 6.009 7.46 5.897a1.37 1.37 0 01.538.93 1.362 1.362 0 01-.79 1.4 1.326 1.326 0 01-.6.116zm15.935 0a1.327 1.327 0 01-1.065-.517 1.36 1.36 0 01.223-1.909l7.46-5.897-7.47-6.009a1.359 1.359 0 01.705-2.413c.359-.04.719.066 1 .292l8.8 7.105a1.353 1.353 0 010 2.121l-8.8 6.953a1.33 1.33 0 01-.853.274zm-11.662 0a1.392 1.392 0 01-.558-.122 1.359 1.359 0 01-.67-1.796l6.405-14.038a1.359 1.359 0 012.512.087 1.36 1.36 0 01-.036 1.04l-6.415 14.037a1.343 1.343 0 01-1.238.792z" fill="#fff"/><path d="M334.788 189.834H77.181v61.032h257.607v-61.032z" fill="#C9C9C9"/><path d="M334.788 183.815H77.181v11.013h257.607v-11.013z" fill="#E6E6E6"/><path d="M157.315 53.337H55.429v80.48h101.886v-80.48z" fill="#24285B"/><path d="M117.933 98.048H85.209v3.664h32.724v-3.664z" fill="#4F46E5"/><path d="M123.86 87.847H94.598v3.664h29.262v-3.664zm-1.532 28.359h-15.266v3.664h15.266v-3.664z" fill="#FFD200"/><path d="M133.594 106.899H94.598v3.664h38.996v-3.664z" fill="#4F46E5"/><path d="M87.737 106.899H73.07v3.664h14.667v-3.664zm14.605 9.622H87.676v3.664h14.666v-3.664zM78.348 98.048H63.68v3.664h14.667v-3.664zm-16.25-36.814a1.725 1.725 0 100-3.451 1.725 1.725 0 000 3.45z" fill="#fff"/><path d="M67.234 61.234a1.726 1.726 0 100-3.451 1.726 1.726 0 000 3.45z" fill="#4F46E5"/><path d="M72.075 61.234a1.725 1.725 0 100-3.451 1.725 1.725 0 000 3.45z" fill="#FFD200"/><path d="M78.348 70.196H63.68v3.664h14.667v-3.664zm9.389 9.156H73.07v3.664h14.667v-3.664z" fill="#fff"/><path d="M123.86 79.352H94.598v3.664h29.262v-3.664z" fill="#FFD200"/><path d="M87.737 87.847H73.07v3.664h14.667v-3.664z" fill="#fff"/><path d="M114.431 70.196H84.215v3.664h30.216v-3.664zm27.76 0h-21.447v3.664h21.447v-3.664z" fill="#4F46E5"/><path d="M239.54 177.715s-22.157-6.415-19.498 6.09h19.498v-6.09z" fill="#F4A28C"/><path d="M233.551 180.375h-41.909v3.44h41.909v-3.44zM215.87 96.251h-88.163v66.747h88.163V96.251z" fill="#E6E6E6"/><path opacity=".08" d="M268.772 104.199s-17.306 12.616-9.44 35.839c11.724 34.602-47.116 32.876-47.116 32.876l4.791 11.551 67.528-5.796 5.877-23.345-21.64-51.125z" fill="#000"/><path d="M163.699 137.887l-9.48 45.928h46.903v-6.1l-23.446-1.502-2-38.326h-11.977z" fill="#C9C9C9"/><path d="M268.102 106.939a12.17 12.17 0 011.675-4.823A12.171 12.171 0 01278 96.451a12.181 12.181 0 015.104.156c9.399 2.334 21.203 9.723 22.969 31.871 2.995 37.555-7.653 55.337-7.653 55.337h-58.88v-7.47l40.874-4.994s-15.499-38.519-12.312-64.412z" fill="#4F46E5"/><path opacity=".46" d="M268.102 106.939a12.17 12.17 0 011.675-4.823A12.171 12.171 0 01278 96.451a12.181 12.181 0 015.104.156c9.399 2.334 21.203 9.723 22.969 31.871 2.995 37.555-7.653 55.337-7.653 55.337h-58.88v-7.47l40.874-4.994s-15.499-38.519-12.312-64.412z" fill="#fff"/><path opacity=".58" d="M99.673 173.96s-8.313-2.274-10.15-10.018c0 0 12.89-2.609 13.256 10.698l-3.106-.68z" fill="#4F46E5"/><path opacity=".73" d="M100.698 173.127s-5.816-9.185-.7-17.782c0 0 9.805 6.232 5.45 17.803l-4.75-.021z" fill="#4F46E5"/><path d="M102.19 173.138s3.045-9.704 12.363-11.541c0 0 1.736 6.293-6.019 11.571l-6.344-.03z" fill="#4F46E5"/><path d="M96.161 172.914l1.685 11.541 10.617.051 1.573-11.531-13.875-.061z" fill="#24285B"/></svg>