<svg width="406" height="306" fill="none" xmlns="http://www.w3.org/2000/svg"><path d="M348.916 56.2H154.178v158.938h194.738V56.199z" fill="#E6E6E6"/><path opacity=".35" d="M251.547 146.93h-66.096v41.493h66.096V146.93z" fill="#fff"/><path opacity=".08" d="M207.08 127.584l22.584 1.584-15.824 85.97h-59.662v-41.29l52.902-46.264z" fill="#000"/><path opacity=".35" d="M251.537 78.834h-76.581v56.505h76.581V78.834z" fill="#fff"/><path d="M185.451 122.885l8.211-15.469 13.104 7.684L217.9 98.566l11.774 6.465 8.912-14.078" stroke="#C1C1C1" stroke-width="2.03" stroke-linecap="round" stroke-linejoin="round"/><path d="M238.18 94.303a2.7 2.7 0 100-5.4 2.7 2.7 0 000 5.4z" fill="#24285B"/><path d="M217.738 101.458a2.7 2.7 0 100-5.4 2.7 2.7 0 000 5.4z" fill="#68E1FD"/><path d="M129.504 182.141l16.555-63.296 67.781 4.04-15.042 65.538-69.294-6.282z" fill="#FFD200"/><path d="M111.366 102.402l-4.355 25.182 15.154 4.436-2.76-21.041-8.039-8.577z" fill="#F4A28C"/><path opacity=".31" d="M120.206 115.567a10.309 10.309 0 01-5.075-3.106s.153 5.207 5.806 10.424l-.731-7.318z" fill="#CE8172"/><path d="M127.301 101.529s.142 8.689-1.715 14.322a4.367 4.367 0 01-5.542 2.761c-2.822-1.015-6.364-3.116-7.003-7.765l-2.03-7.755s-1.117-4.902 4.06-8.12c5.176-3.217 12.413 1.26 12.23 6.557z" fill="#F4A28C"/><path d="M117.568 108.34s.172-3.339-2.345-3.258c-2.517.081-2.812 4.902.568 5.592l1.777-2.334zm9.54-1.34l2.183 3.512a1.4 1.4 0 01-.373 1.867c-.19.137-.41.225-.642.254l-3.36.386 2.192-6.019z" fill="#F4A28C"/><path opacity=".08" d="M146.058 118.845l15.743.944s-6.151 49.522 13.195 66.473l-26.552-2.812-7.105-22.432 1.441-29.506 3.278-12.667z" fill="#000"/><path d="M68.736 240.635s-17.895-70.207 4.344-93.989c22.239-23.781 45.096-22.604 62.28-11.256 17.184 11.347 32.937 27.181 8.597 105.245H68.736z" fill="#4F46E5"/><path d="M135.797 138.516s6.922-9.419 10.262-6.496c3.339 2.923-2.924 5.674-1.817 10.272 1.106 4.598-10.353 1.705-8.445-3.776z" fill="#F4A28C"/><path d="M108.696 106.087s-2.03 6.861 2.781 8.698c4.812 1.837 8.303-4.628 9.612-10.15 0 0 7.948-.223 8.12-5.247.173-5.025-1.695-9.064-8.779-8.384-7.085.68-12.119 1.959-11.734 15.083z" fill="#24285B"/><path d="M120.42 145.814a12.469 12.469 0 015.775-8.648 12.47 12.47 0 0110.322-1.259c8.557 2.558 15.124 12.982 18.139 23.63 6.201 21.954-.894 49.4 16.047 46.05 16.94-3.349 8.587-53.693 8.587-53.693l10.028-.477s18.848 73.029-21.955 77.322c-35.951 3.786-53.115-48.243-46.943-82.925z" fill="#4F46E5"/><path opacity=".44" d="M120.42 145.814a12.469 12.469 0 015.775-8.648 12.47 12.47 0 0110.322-1.259c8.557 2.558 15.124 12.982 18.139 23.63 6.201 21.954-.894 49.4 16.047 46.05 16.94-3.349 8.587-53.693 8.587-53.693l10.028-.477s18.848 73.029-21.955 77.322c-35.951 3.786-53.115-48.243-46.943-82.925z" fill="#fff"/><path d="M185.231 132.451l-2.115.964 8.528 18.712 2.115-.964-8.528-18.712z" fill="#24285B"/><path opacity=".08" d="M107.011 127.625s-19.812 19.782-16.31 45.675c3.501 25.893 21.152 67.345 21.152 67.345H68.736s-12.688-46.913-3.045-80.834c-.03-.01 6.08-24.168 41.32-32.186z" fill="#000"/><path d="M181.127 151.812s.731-13.753 8.84-13.276c8.11.477-.649 12.881-.649 12.881l-8.191.395z" fill="#F4A28C"/><path d="M68.736 240.635l6.689 23.183h76.845l-8.353-23.183H68.736zm225.766-158.36a25.144 25.144 0 00-23.227 15.52 25.14 25.14 0 1048.369 9.621h-25.142V82.275z" fill="#24285B"/><path d="M299.354 75.982v25.141h25.142a25.141 25.141 0 00-25.142-25.141z" fill="#4F46E5"/><path d="M314.508 204.521h-29.191v25.051h29.191v-25.051z" fill="#FFD200"/><path opacity=".53" d="M303.414 198.969h-7.004v10.353h7.004v-10.353z" fill="#fff"/><path d="M322.74 146.93h-49.157v41.493h49.157V146.93z" fill="#C1C1C1"/><path d="M288.707 156.471h-6.05v6.05h6.05v-6.05z" fill="#24285B"/><path d="M288.707 171.432h-6.05v6.05h6.05v-6.05z" fill="#68E1FD"/><path opacity=".08" d="M310.651 156.471h-12.485a3.025 3.025 0 000 6.05h12.485a3.025 3.025 0 000-6.05zm0 14.961h-12.485a3.025 3.025 0 000 6.05h12.485a3.025 3.025 0 000-6.05z" fill="#000"/><path d="M187.755 94.901a4.851 4.851 0 100-9.702 4.851 4.851 0 000 9.702z" fill="#C1C1C1"/></svg>