<svg width="406" height="306" fill="none" xmlns="http://www.w3.org/2000/svg"><path opacity=".86" d="M330.616 50.729H75.384v165.83h255.232V50.729z" fill="#C9C9C9"/><path d="M183.715 197.619l-9.693 61.58h64.655l-14.87-61.58h-40.092z" fill="#C9C9C9"/><path opacity=".08" d="M199.529 51.267h13.621s-2.984 9.337-6.831 15.103c-3.847 5.765 8.709 14.159 8.709 14.159l47.319-29.71 14.718-.09s16.27 30.886 3.319 43.401c-12.952 12.515-43.026 5.41-44.041 14.545-1.015 9.135 17.925 27.07 17.925 27.07l61.397-46.386s12.748 8.242 1.583 16.657c-11.165 8.414-40.508 60.006-60.341 60.433-19.833.426-25.254-7.43-20.859 12.23h-30.45l-7.44-74.967-10.048-23.183 6.334-26.593 5.085-2.67z" fill="#000"/><path opacity=".45" d="M204.563 280.667c58.495 0 105.915-5.581 105.915-12.465 0-6.883-47.42-12.464-105.915-12.464-58.495 0-105.915 5.581-105.915 12.464 0 6.884 47.42 12.465 105.915 12.465z" fill="#E6E6E6"/><path opacity=".58" d="M273.847 255.515s-9.186-2.507-11.165-11.053c0 0 14.21-2.873 14.636 11.814l-3.471-.761z" fill="#4F46E5"/><path opacity=".73" d="M274.974 254.591s-6.415-10.15-.772-19.63c0 0 10.81 6.872 6.009 19.651l-5.237-.021z" fill="#4F46E5"/><path d="M276.618 254.591s3.39-10.708 13.642-12.738c0 0 1.918 6.953-6.639 12.769l-7.003-.031z" fill="#4F46E5"/><path d="M269.96 254.358l1.867 12.728 11.723.051 1.726-12.718-15.316-.061z" fill="#24285B"/><path d="M305.16 90.466s6.404-7.105 11.012-6.71c4.609.397 7.105 9.136-7.257 14.343l-3.755-7.633z" fill="#F4A28C"/><path d="M364.192 22.562h-59.723V73.78h59.723V22.562z" fill="#C9C9C9"/><path d="M235.084 88.598l21.772 36.429 47.147-34.104 8.465 6.384-46.893 50.232a17.124 17.124 0 01-25.456-.487l-23.345-27.06 18.31-31.394z" fill="#4F46E5"/><path opacity=".46" d="M235.084 88.598l21.772 36.429 47.147-34.104 8.465 6.384-46.893 50.232a17.124 17.124 0 01-25.456-.487l-23.345-27.06 18.31-31.394z" fill="#fff"/><path d="M330.616 178.68H75.384v37.879h255.232V178.68z" fill="#E6E6E6"/><path d="M204.421 205.607c5.662 0 10.252-4.589 10.252-10.251 0-5.662-4.59-10.252-10.252-10.252-5.662 0-10.251 4.59-10.251 10.252 0 5.662 4.589 10.251 10.251 10.251z" fill="#A5A5A5"/><path d="M250.198 248.41h-90.934v19.793h90.934V248.41z" fill="#E6E6E6"/><path d="M199.387 49.622s.801 7.105-.274 11.815a3.585 3.585 0 01-4.294 2.69c-2.385-.579-5.43-2.03-6.323-5.776l-2.284-6.16a6.375 6.375 0 012.639-6.893c3.938-2.933 10.262 0 10.536 4.324z" fill="#F4A28C"/><path d="M187.521 53.936l-5.745 22.584 12.668 2.284-.904-17.347-6.019-7.521z" fill="#F4A28C"/><path d="M185.441 57.722a.666.666 0 00.527.64 4.709 4.709 0 005.258-2.223 5.923 5.923 0 00-.162-6.507c2.168.37 4.372.483 6.567.335a6.764 6.764 0 002.151-.487l1.696-5.39s2.791-5.4-.376-6.485c-3.167-1.086-4.578 2.537-7.176 0-2.598-2.538-3.197-3.482-5.816-2.03-2.619 1.451.426 3.491-3.887 3.552-4.314.061-4.375 1.847-4.375 3.806.101.67.397 1.295.852 1.797a21.832 21.832 0 014.741 12.992z" fill="#24285B"/><path d="M191.987 55.905s-.152-2.73-2.182-2.466c-2.03.264-1.898 4.212.903 4.516l1.279-2.05zm7.674-1.797l2.03 2.68a1.143 1.143 0 01.165 1.089 1.138 1.138 0 01-.835.718l-2.7.589 1.34-5.075z" fill="#F4A28C"/><path opacity=".31" d="M193.621 63.761s-1.634-.274-4.567-2.933c0 0-.426 4.628 4.872 8.039l-.305-5.106z" fill="#CE8172"/><path d="M149.276 96.89a21.497 21.497 0 0117.996-18.503c14.108-2.233 36.54-3.806 57.855 3.045 34.764 11.165-6.598 85.007-6.598 85.007h-50.953s-22.999-32.237-18.3-69.548z" fill="#4F46E5"/><path d="M167.577 166.449l4.232 12.23h51.765l-4.994-12.23h-51.003z" fill="#24285B"/><path d="M211.577 89.268l6.547 16.748 5.47-2.873-5.47-14.545-6.547.67z" fill="#FFD200"/><path opacity=".08" d="M171.21 88.466s18.524 13.266 8.881 37.555l40.347-32.602s8.12 8.222-3.705 16.515c-11.825 8.292-10.708 41.341-28.623 56.566h-20.533l-4.741-11.927-4.06-35.819 12.434-30.288z" fill="#000"/><path opacity=".4" d="M211.577 89.268l6.547 16.748 5.47-2.873-5.47-14.545-6.547.67z" fill="#fff"/><path d="M209.435 96.079s6.395-7.105 11.003-6.71c4.608.397 7.105 9.136-7.247 14.343l-3.756-7.633z" fill="#F4A28C"/><path d="M215.078 74.53l45.412-27.15 10.15 41.218h-52.517l-3.045-14.068z" fill="#FFD200"/><path d="M215.078 74.53l-11.51 3.959 3.553 12.434 11.002-2.325-3.045-14.068z" fill="#FFD200"/><path opacity=".08" d="M215.078 74.53l-11.51 3.959 3.553 12.434 11.002-2.325-3.045-14.068z" fill="#000"/><path d="M355.534 154.898h-67.497v44.041h67.497v-44.041z" fill="#FFD200"/><path d="M114.309 28.135h-58.21v55.104h58.21V28.135z" fill="#24285B"/><path d="M311.29 165.078v23.68l24.644-13.347-24.644-10.333zM90.599 42.842a6.831 6.831 0 00-4.324 1.492 9.595 9.595 0 00-2.517 3.045 9.734 9.734 0 00-2.517-3.045 6.851 6.851 0 00-4.304-1.492c-4.405 0-7.724 3.603-7.724 8.384 0 5.156 4.141 8.688 10.414 14.037 1.015.914 2.273 1.94 3.532 3.045a.862.862 0 00.599.224.883.883 0 00.599-.224c1.248-1.096 2.456-2.12 3.532-3.045 6.273-5.349 10.414-8.88 10.414-14.037.02-4.801-3.299-8.384-7.704-8.384z" fill="#fff"/><path opacity=".72" d="M304.48 63.477l18.676-29.262 11.175 26.674 12.241-21.833 17.62 26.309v8.414H304.48V63.477z" fill="#fff"/><path d="M335.518 41.492a5.126 5.126 0 100-10.252 5.126 5.126 0 000 10.252z" fill="#fff"/><path d="M172.002 91.38a12.181 12.181 0 00-20.3-7.014 25.363 25.363 0 00-8.12 19.346c.254 21.122-.508 55.124 16.494 61.468 17.001 6.344 53.074-61.468 53.074-61.468l-3.755-7.633-43.047 35.87s8.232-22.868 5.654-40.57z" fill="#4F46E5"/><path opacity=".46" d="M172.002 91.38a12.181 12.181 0 00-20.3-7.014 25.363 25.363 0 00-8.12 19.346c.254 21.122-.508 55.124 16.494 61.468 17.001 6.344 53.074-61.468 53.074-61.468l-3.755-7.633-43.047 35.87s8.232-22.868 5.654-40.57z" fill="#fff"/><path d="M271.397 88.476c4.512-1.09 5.932-11.244 3.171-22.682-2.761-11.438-8.657-19.827-13.169-18.738-4.512 1.089-5.931 11.244-3.17 22.682 2.76 11.438 8.656 19.827 13.168 18.738z" fill="#FFD200"/><path opacity=".4" d="M271.397 88.476c4.512-1.09 5.932-11.244 3.171-22.682-2.761-11.438-8.657-19.827-13.169-18.738-4.512 1.089-5.931 11.244-3.17 22.682 2.76 11.438 8.656 19.827 13.168 18.738z" fill="#fff"/><path d="M257.516 60.767a3.434 3.434 0 00-.66.254 51.023 51.023 0 004.902 19.508c.171-.009.341-.032.508-.071 2.893-.7 4.172-5.674 2.862-11.165-1.309-5.491-4.72-9.226-7.612-8.526z" fill="#FFD200"/><path opacity=".08" d="M257.516 60.767a3.434 3.434 0 00-.66.254 51.023 51.023 0 004.902 19.508c.171-.009.341-.032.508-.071 2.893-.7 4.172-5.674 2.862-11.165-1.309-5.491-4.72-9.226-7.612-8.526z" fill="#000"/><path d="M111.102 111.334H44.619v44.609h66.483v-44.609z" fill="#E6E6E6"/><path d="M44.61 111.334l33.24 31.617 33.242-31.617H44.609z" fill="#C9C9C9"/></svg>