<svg width="406" height="306" viewBox="0 0 406 306" fill="none" xmlns="http://www.w3.org/2000/svg">
<path d="M279.419 112.4C279.419 112.4 320.019 99.9256 325.622 126.874C331.225 153.822 319.796 183.866 319.796 183.866H253.679L279.419 112.4Z" fill="#FFD200"/>
<path d="M225.452 99.814C225.452 99.814 203.944 98.799 199.711 120.175C195.479 141.551 202.695 171.27 202.695 171.27L170.266 179.989L171.9 183.856H218.164L232.374 150.564L225.452 99.814Z" fill="#4F46E5"/>
<path opacity="0.46" d="M225.452 99.814C225.452 99.814 203.944 98.799 199.711 120.175C195.479 141.551 202.695 171.27 202.695 171.27L170.266 179.989L171.9 183.856H218.164L232.374 150.564L225.452 99.814Z" fill="white"/>
<path d="M239.743 71.4143C239.743 71.4143 239.428 78.2554 240.758 82.7417C240.888 83.1752 241.102 83.5788 241.389 83.9294C241.675 84.28 242.028 84.5706 242.427 84.7846C242.825 84.9986 243.263 85.1319 243.713 85.1767C244.163 85.2215 244.618 85.177 245.051 85.0457C247.305 84.3454 250.126 82.7417 250.756 79.0978L252.552 73.0078C252.785 71.7564 252.625 70.4633 252.092 69.3071C251.559 68.1509 250.681 67.1884 249.578 66.5524C245.63 63.9642 239.723 67.2426 239.743 71.4143Z" fill="#F4A28C"/>
<path d="M252.085 76.134L254.633 98.4234L242.24 98.9411L245.366 82.5184L252.085 76.134Z" fill="#F4A28C"/>
<path d="M241.458 71.6275C243.574 71.6284 245.683 71.3797 247.741 70.8865C247.167 71.8412 246.886 72.9429 246.931 74.0558C246.976 75.1686 247.346 76.2439 247.995 77.1491C248.608 78.0355 249.51 78.6819 250.546 78.978C251.583 79.2742 252.69 79.2017 253.679 78.7731L253.212 69.9832C253.187 68.7213 252.822 67.4896 252.156 66.4177C251.49 65.3459 250.547 64.4737 249.426 63.8932C248.44 63.3915 247.423 62.9542 246.381 62.5838C243.813 61.6703 240.169 63.5176 237.835 61.9038C237.6 61.7419 237.326 61.6441 237.042 61.6199C236.757 61.5957 236.472 61.646 236.212 61.7659C235.953 61.8857 235.73 62.0709 235.564 62.3033C235.398 62.5357 235.296 62.8073 235.267 63.0913C234.972 65.7811 235.622 69.9629 239.327 71.2722C240.01 71.5167 240.732 71.6371 241.458 71.6275V71.6275Z" fill="#24285B"/>
<path d="M247.254 76.9765C247.254 76.9765 247.254 74.3375 249.182 74.4593C251.111 74.5811 251.273 78.3873 248.604 78.8542L247.254 76.9765Z" fill="#F4A28C"/>
<path d="M239.774 75.7382L237.977 78.4483C237.874 78.602 237.811 78.7794 237.795 78.9638C237.779 79.1482 237.81 79.3336 237.885 79.5029C237.96 79.6721 238.077 79.8196 238.224 79.9316C238.372 80.0436 238.545 80.1164 238.728 80.1433L241.367 80.529L239.774 75.7382Z" fill="#F4A28C"/>
<path opacity="0.31" d="M245.539 83.0462C247.129 83.0508 248.685 82.5885 250.015 81.7166C250.015 81.7166 249.832 85.8578 244.473 88.6795L245.539 83.0462Z" fill="#CE8172"/>
<path d="M225.452 99.814C225.452 99.814 273.695 90.5673 290.178 99.814C306.662 109.061 272.081 195.082 272.081 195.082L221.27 193.478C221.27 193.478 176.813 108.655 225.452 99.814Z" fill="#4F46E5"/>
<path d="M359.939 46.222H301.242V86.5784H359.939V46.222Z" fill="#FFD200"/>
<path d="M322.699 74.3172C322.393 74.3191 322.095 74.2151 321.856 74.0229L313.056 67.0701C312.896 66.9438 312.766 66.7827 312.677 66.599C312.588 66.4152 312.542 66.2137 312.542 66.0094C312.542 65.8052 312.588 65.6037 312.677 65.4199C312.766 65.2362 312.896 65.0751 313.056 64.9488L321.856 57.8438C321.996 57.7318 322.156 57.6484 322.327 57.5982C322.499 57.5481 322.679 57.5322 322.856 57.5516C323.034 57.5709 323.206 57.625 323.363 57.7108C323.519 57.7967 323.658 57.9126 323.77 58.0518C323.882 58.1911 323.965 58.3511 324.015 58.5226C324.065 58.6942 324.081 58.8739 324.062 59.0516C324.043 59.2292 323.988 59.4014 323.903 59.5581C323.817 59.7149 323.701 59.8532 323.562 59.9651L316.091 65.9739L323.551 71.8711C323.699 71.9814 323.823 72.1207 323.916 72.2805C324.008 72.4402 324.067 72.6171 324.089 72.8004C324.111 72.9837 324.095 73.1695 324.043 73.3465C323.991 73.5235 323.903 73.688 323.785 73.83C323.654 73.99 323.488 74.1174 323.299 74.2019C323.111 74.2865 322.905 74.326 322.699 74.3172V74.3172Z" fill="white"/>
<path d="M338.634 74.3172C338.429 74.3192 338.226 74.2735 338.041 74.1836C337.856 74.0938 337.694 73.9623 337.569 73.7995C337.346 73.5167 337.244 73.157 337.286 72.7993C337.328 72.4415 337.51 72.115 337.792 71.8913L345.252 65.9942L337.782 59.9854C337.5 59.7593 337.32 59.4307 337.281 59.0718C337.242 58.713 337.348 58.3534 337.574 58.0721C337.8 57.7908 338.128 57.6108 338.487 57.5718C338.846 57.5328 339.206 57.6379 339.487 57.864L348.287 64.969C348.447 65.0954 348.577 65.2565 348.666 65.4402C348.756 65.6239 348.802 65.8255 348.802 66.0297C348.802 66.2339 348.756 66.4355 348.666 66.6192C348.577 66.803 348.447 66.9641 348.287 67.0904L339.487 74.0431C339.243 74.2303 338.942 74.3272 338.634 74.3172V74.3172Z" fill="white"/>
<path d="M326.972 74.3172C326.78 74.3157 326.59 74.2742 326.414 74.1954C326.088 74.0451 325.834 73.7719 325.709 73.4353C325.583 73.0987 325.596 72.7261 325.744 72.3989L332.149 58.3614C332.298 58.033 332.572 57.7774 332.91 57.6508C333.248 57.5242 333.622 57.537 333.95 57.6864C334.279 57.8358 334.534 58.1096 334.661 58.4475C334.787 58.7853 334.775 59.1596 334.625 59.4881L328.21 73.5255C328.103 73.763 327.928 73.9642 327.708 74.1047C327.489 74.2452 327.233 74.319 326.972 74.3172Z" fill="white"/>
<path d="M334.788 189.834H77.1807V250.866H334.788V189.834Z" fill="#C9C9C9"/>
<path d="M334.788 183.815H77.1807V194.828H334.788V183.815Z" fill="#E6E6E6"/>
<path d="M157.315 53.3372H55.4292V133.817H157.315V53.3372Z" fill="#24285B"/>
<path d="M117.933 98.0479H85.2092V101.712H117.933V98.0479Z" fill="#4F46E5"/>
<path d="M123.86 87.8472H94.598V91.5113H123.86V87.8472Z" fill="#FFD200"/>
<path d="M122.328 116.206H107.062V119.87H122.328V116.206Z" fill="#FFD200"/>
<path d="M133.594 106.899H94.598V110.563H133.594V106.899Z" fill="#4F46E5"/>
<path d="M87.7366 106.899H73.0698V110.563H87.7366V106.899Z" fill="white"/>
<path d="M102.342 116.521H87.6757V120.185H102.342V116.521Z" fill="white"/>
<path d="M78.3479 98.0479H63.6812V101.712H78.3479V98.0479Z" fill="white"/>
<path d="M62.0977 61.2338C63.0507 61.2338 63.8232 60.4613 63.8232 59.5083C63.8232 58.5554 63.0507 57.7828 62.0977 57.7828C61.1447 57.7828 60.3722 58.5554 60.3722 59.5083C60.3722 60.4613 61.1447 61.2338 62.0977 61.2338Z" fill="white"/>
<path d="M67.2336 61.2338C68.1865 61.2338 68.9591 60.4613 68.9591 59.5083C68.9591 58.5554 68.1865 57.7828 67.2336 57.7828C66.2806 57.7828 65.5081 58.5554 65.5081 59.5083C65.5081 60.4613 66.2806 61.2338 67.2336 61.2338Z" fill="#4F46E5"/>
<path d="M72.0751 61.2338C73.0281 61.2338 73.8006 60.4613 73.8006 59.5083C73.8006 58.5554 73.0281 57.7828 72.0751 57.7828C71.1221 57.7828 70.3496 58.5554 70.3496 59.5083C70.3496 60.4613 71.1221 61.2338 72.0751 61.2338Z" fill="#FFD200"/>
<path d="M78.3479 70.1963H63.6812V73.8604H78.3479V70.1963Z" fill="white"/>
<path d="M87.7366 79.3516H73.0698V83.0158H87.7366V79.3516Z" fill="white"/>
<path d="M123.86 79.3516H94.598V83.0158H123.86V79.3516Z" fill="#FFD200"/>
<path d="M87.7366 87.8472H73.0698V91.5113H87.7366V87.8472Z" fill="white"/>
<path d="M114.431 70.1963H84.2146V73.8604H114.431V70.1963Z" fill="#4F46E5"/>
<path d="M142.191 70.1963H120.744V73.8604H142.191V70.1963Z" fill="#4F46E5"/>
<path d="M239.54 177.715C239.54 177.715 217.383 171.3 220.042 183.805H239.54V177.715Z" fill="#F4A28C"/>
<path d="M233.551 180.375H191.642V183.815H233.551V180.375Z" fill="#E6E6E6"/>
<path d="M215.87 96.2513H127.707V162.998H215.87V96.2513Z" fill="#E6E6E6"/>
<path opacity="0.08" d="M268.772 104.199C268.772 104.199 251.466 116.815 259.332 140.038C271.056 174.64 212.216 172.914 212.216 172.914L217.007 184.465L284.535 178.669L290.412 155.324L268.772 104.199Z" fill="black"/>
<path d="M163.699 137.887L154.219 183.815H201.122V177.715L177.676 176.213L175.676 137.887H163.699Z" fill="#C9C9C9"/>
<path d="M268.102 106.939C268.313 105.231 268.884 103.587 269.777 102.116C270.669 100.644 271.864 99.3784 273.281 98.4021C274.699 97.4258 276.307 96.761 278 96.4515C279.693 96.142 281.433 96.1949 283.104 96.6066C292.503 98.9411 304.307 106.33 306.073 128.478C309.068 166.033 298.42 183.815 298.42 183.815H239.54V176.345L280.414 171.351C280.414 171.351 264.915 132.832 268.102 106.939Z" fill="#4F46E5"/>
<path opacity="0.46" d="M268.102 106.939C268.313 105.231 268.884 103.587 269.777 102.116C270.669 100.644 271.864 99.3784 273.281 98.4021C274.699 97.4258 276.307 96.761 278 96.4515C279.693 96.142 281.433 96.1949 283.104 96.6066C292.503 98.9411 304.307 106.33 306.073 128.478C309.068 166.033 298.42 183.815 298.42 183.815H239.54V176.345L280.414 171.351C280.414 171.351 264.915 132.832 268.102 106.939Z" fill="white"/>
<path opacity="0.58" d="M99.6729 173.96C99.6729 173.96 91.3601 171.686 89.5229 163.942C89.5229 163.942 102.413 161.333 102.779 174.64L99.6729 173.96Z" fill="#4F46E5"/>
<path opacity="0.73" d="M100.698 173.127C100.698 173.127 94.8822 163.942 99.9978 155.345C99.9978 155.345 109.803 161.577 105.448 173.148L100.698 173.127Z" fill="#4F46E5"/>
<path d="M102.19 173.138C102.19 173.138 105.235 163.434 114.553 161.597C114.553 161.597 116.289 167.89 108.534 173.168L102.19 173.138Z" fill="#4F46E5"/>
<path d="M96.1611 172.914L97.846 184.455L108.463 184.506L110.036 172.975L96.1611 172.914Z" fill="#24285B"/>
</svg>
