<svg width="406" height="306" viewBox="0 0 406 306" fill="none" xmlns="http://www.w3.org/2000/svg">
<path d="M348.916 56.1995H154.178V215.138H348.916V56.1995Z" fill="#E6E6E6"/>
<path opacity="0.35" d="M251.547 146.93H185.451V188.423H251.547V146.93Z" fill="white"/>
<path opacity="0.08" d="M207.08 127.584L229.664 129.168L213.84 215.138H154.178V173.848L207.08 127.584Z" fill="black"/>
<path opacity="0.35" d="M251.537 78.834H174.956V135.339H251.537V78.834Z" fill="white"/>
<path d="M185.451 122.885L193.662 107.416L206.766 115.1L217.9 98.5656L229.674 105.031L238.586 90.9531" stroke="#C1C1C1" stroke-width="2.03" stroke-linecap="round" stroke-linejoin="round"/>
<path d="M238.18 94.3026C239.671 94.3026 240.88 93.0938 240.88 91.6027C240.88 90.1116 239.671 88.9028 238.18 88.9028C236.689 88.9028 235.48 90.1116 235.48 91.6027C235.48 93.0938 236.689 94.3026 238.18 94.3026Z" fill="#24285B"/>
<path d="M217.738 101.458C219.229 101.458 220.438 100.249 220.438 98.7584C220.438 97.2673 219.229 96.0585 217.738 96.0585C216.247 96.0585 215.038 97.2673 215.038 98.7584C215.038 100.249 216.247 101.458 217.738 101.458Z" fill="#68E1FD"/>
<path d="M129.504 182.141L146.059 118.845L213.84 122.885L198.798 188.423L129.504 182.141Z" fill="#FFD200"/>
<path d="M111.366 102.402L107.011 127.584L122.165 132.02L119.405 110.979L111.366 102.402Z" fill="#F4A28C"/>
<path opacity="0.31" d="M120.206 115.567C118.246 115.053 116.481 113.973 115.131 112.461C115.131 112.461 115.284 117.668 120.937 122.885L120.206 115.567Z" fill="#CE8172"/>
<path d="M127.301 101.529C127.301 101.529 127.443 110.218 125.586 115.851C125.405 116.397 125.118 116.902 124.741 117.337C124.364 117.772 123.904 118.128 123.389 118.384C122.874 118.641 122.314 118.793 121.739 118.832C121.165 118.871 120.589 118.796 120.044 118.612C117.222 117.597 113.68 115.496 113.041 110.847L111.011 103.092C111.011 103.092 109.894 98.19 115.071 94.9725C120.247 91.7549 127.484 96.2311 127.301 101.529Z" fill="#F4A28C"/>
<path d="M117.568 108.34C117.568 108.34 117.74 105.001 115.223 105.082C112.706 105.163 112.411 109.984 115.791 110.674L117.568 108.34Z" fill="#F4A28C"/>
<path d="M127.108 107L129.291 110.512C129.413 110.711 129.483 110.938 129.495 111.172C129.507 111.405 129.461 111.638 129.36 111.849C129.259 112.06 129.107 112.242 128.918 112.379C128.728 112.516 128.508 112.604 128.276 112.633L124.916 113.019L127.108 107Z" fill="#F4A28C"/>
<path opacity="0.08" d="M146.058 118.845L161.801 119.789C161.801 119.789 155.65 169.311 174.996 186.262L148.444 183.45L141.339 161.018L142.78 131.512L146.058 118.845Z" fill="black"/>
<path d="M68.7358 240.635C68.7358 240.635 50.8414 170.428 73.08 146.646C95.3187 122.865 118.176 124.042 135.36 135.39C152.544 146.737 168.297 162.571 143.957 240.635H68.7358Z" fill="#4F46E5"/>
<path d="M135.797 138.516C135.797 138.516 142.719 129.097 146.059 132.02C149.398 134.943 143.135 137.694 144.242 142.292C145.348 146.89 133.889 143.997 135.797 138.516Z" fill="#F4A28C"/>
<path d="M108.696 106.087C108.696 106.087 106.666 112.948 111.477 114.785C116.289 116.622 119.78 110.157 121.089 104.635C121.089 104.635 129.037 104.412 129.209 99.3877C129.382 94.3634 127.514 90.3237 120.43 91.0038C113.345 91.6838 108.311 92.9627 108.696 106.087Z" fill="#24285B"/>
<path d="M120.42 145.814C120.703 144.042 121.366 142.351 122.362 140.859C123.359 139.366 124.667 138.107 126.195 137.166C127.724 136.226 129.437 135.626 131.219 135.409C133 135.192 134.808 135.362 136.517 135.907C145.074 138.465 151.641 148.889 154.656 159.537C160.857 181.491 153.762 208.937 170.703 205.587C187.643 202.238 179.29 151.894 179.29 151.894L189.318 151.417C189.318 151.417 208.166 224.446 167.363 228.739C131.412 232.525 114.248 180.496 120.42 145.814Z" fill="#4F46E5"/>
<path opacity="0.44" d="M120.42 145.814C120.703 144.042 121.366 142.351 122.362 140.859C123.359 139.366 124.667 138.107 126.195 137.166C127.724 136.226 129.437 135.626 131.219 135.409C133 135.192 134.808 135.362 136.517 135.907C145.074 138.465 151.641 148.889 154.656 159.537C160.857 181.491 153.762 208.937 170.703 205.587C187.643 202.238 179.29 151.894 179.29 151.894L189.318 151.417C189.318 151.417 208.166 224.446 167.363 228.739C131.412 232.525 114.248 180.496 120.42 145.814Z" fill="white"/>
<path d="M185.231 132.451L183.116 133.415L191.644 152.127L193.759 151.163L185.231 132.451Z" fill="#24285B"/>
<path opacity="0.08" d="M107.011 127.625C107.011 127.625 87.1987 147.407 90.7004 173.3C94.2022 199.193 111.853 240.645 111.853 240.645H68.7358C68.7358 240.645 56.0483 193.732 65.6908 159.811C65.6604 159.801 71.7707 135.643 107.011 127.625Z" fill="black"/>
<path d="M181.127 151.812C181.127 151.812 181.858 138.059 189.967 138.536C198.077 139.013 189.318 151.417 189.318 151.417L181.127 151.812Z" fill="#F4A28C"/>
<path d="M68.7358 240.635L75.4247 263.818H152.27L143.917 240.635H68.7358Z" fill="#24285B"/>
<path d="M294.502 82.2748C289.53 82.2748 284.669 83.7493 280.534 86.5119C276.4 89.2745 273.177 93.2011 271.275 97.7951C269.372 102.389 268.874 107.444 269.844 112.321C270.814 117.198 273.208 121.678 276.725 125.194C280.241 128.71 284.72 131.105 289.597 132.075C294.474 133.045 299.53 132.547 304.124 130.644C308.718 128.741 312.644 125.519 315.407 121.384C318.169 117.25 319.644 112.389 319.644 107.416H294.502V82.2748Z" fill="#24285B"/>
<path d="M299.354 75.9818V101.123H324.496C324.496 94.4554 321.847 88.0606 317.132 83.3456C312.417 78.6306 306.022 75.9818 299.354 75.9818Z" fill="#4F46E5"/>
<path d="M314.508 204.521H285.317V229.572H314.508V204.521Z" fill="#FFD200"/>
<path opacity="0.53" d="M303.414 198.969H296.41V209.322H303.414V198.969Z" fill="white"/>
<path d="M322.74 146.93H273.583V188.423H322.74V146.93Z" fill="#C1C1C1"/>
<path d="M288.707 156.471H282.657V162.521H288.707V156.471Z" fill="#24285B"/>
<path d="M288.707 171.432H282.657V177.482H288.707V171.432Z" fill="#68E1FD"/>
<path opacity="0.08" d="M310.651 156.471H298.166C296.496 156.471 295.142 157.826 295.142 159.496C295.142 161.167 296.496 162.521 298.166 162.521H310.651C312.321 162.521 313.676 161.167 313.676 159.496C313.676 157.826 312.321 156.471 310.651 156.471Z" fill="black"/>
<path opacity="0.08" d="M310.651 171.432H298.166C296.496 171.432 295.142 172.787 295.142 174.457C295.142 176.128 296.496 177.482 298.166 177.482H310.651C312.321 177.482 313.676 176.128 313.676 174.457C313.676 172.787 312.321 171.432 310.651 171.432Z" fill="black"/>
<path d="M187.755 94.9014C190.434 94.9014 192.606 92.7292 192.606 90.0497C192.606 87.3702 190.434 85.198 187.755 85.198C185.075 85.198 182.903 87.3702 182.903 90.0497C182.903 92.7292 185.075 94.9014 187.755 94.9014Z" fill="#C1C1C1"/>
</svg>
